<?xml version="1.0" encoding="UTF-8" standalone="no"?>
<svg
   xmlns:dc="http://purl.org/dc/elements/1.1/"
   xmlns:cc="http://creativecommons.org/ns#"
   xmlns:rdf="http://www.w3.org/1999/02/22-rdf-syntax-ns#"
   xmlns:svg="http://www.w3.org/2000/svg"
   xmlns="http://www.w3.org/2000/svg"
   xmlns:sodipodi="http://sodipodi.sourceforge.net/DTD/sodipodi-0.dtd"
   xmlns:inkscape="http://www.inkscape.org/namespaces/inkscape"
   enable-background="new 0 0 64 64"
   height="40"
   id="Layer_1"
   version="1.1"
   viewBox="0 0 32 40"
   width="32"
   xml:space="preserve"
   sodipodi:docname="sim-card-1-error.svg"
   inkscape:version="0.92.2 5c3e80d, 2017-08-06"><metadata
     id="metadata4773"><rdf:RDF><cc:Work
         rdf:about=""><dc:format>image/svg+xml</dc:format><dc:type
           rdf:resource="http://purl.org/dc/dcmitype/StillImage" /><dc:title></dc:title></cc:Work></rdf:RDF></metadata><defs
     id="defs4771" /><sodipodi:namedview
     pagecolor="#ffffff"
     bordercolor="#666666"
     borderopacity="1"
     objecttolerance="10"
     gridtolerance="10"
     guidetolerance="10"
     inkscape:pageopacity="0"
     inkscape:pageshadow="2"
     inkscape:window-width="1440"
     inkscape:window-height="793"
     id="namedview4769"
     showgrid="false"
     inkscape:zoom="14.75"
     inkscape:cx="2.7424648"
     inkscape:cy="17.200765"
     inkscape:window-x="0"
     inkscape:window-y="1"
     inkscape:window-maximized="1"
     inkscape:current-layer="Layer_1"
     fit-margin-top="0"
     fit-margin-left="0"
     fit-margin-right="0"
     fit-margin-bottom="0" /><path
     d="m 32,38 c 0,1.105 -0.895,2 -2,2 H 2 C 0.895,40 0,39.105 0,38 V 2 C 0,0.895 0.895,0 2,0 h 23 c 1.105,0 7,5.895 7,7 z"
     id="path4758"
     inkscape:connector-curvature="0"
     style="fill:#4f5d73" /><path
     d="m 28,34 c 0,1.105 -0.895,2 -2,2 H 6 C 4.895,36 4,35.105 4,34 V 14 c 0,-1.105 0.895,-2 2,-2 h 20 c 1.105,0 2,0.895 2,2 z"
     id="path4760"
     inkscape:connector-curvature="0"
     style="fill:#e0e0d1" /><rect
     height="6"
     width="4"
     x="4"
     y="3.4266634e-010"
     id="rect4762"
     style="fill:#f5cf87" /><rect
     height="6"
     width="4"
     x="10"
     y="3.4266634e-010"
     id="rect4764"
     style="fill:#f5cf87" /><rect
     height="6"
     width="4"
     x="16"
     y="3.4266634e-010"
     id="rect4766"
     style="fill:#f5cf87" /><path
     style="fill:#ffffff;stroke-width:0.19175777"
     d="M 4.988769,35.664198 C 4.088332,35.139742 4.077924,35.006467 4.077924,24.000881 c 0,-7.620208 0.06051,-10.488225 0.22909,-10.858218 0.481885,-1.057621 0.387965,-1.049309 11.856878,-1.049309 h 10.570951 l 0.560521,0.560523 0.560524,0.560522 v 10.767937 10.767937 l -0.560524,0.560521 -0.560521,0.560524 -10.705247,-0.0058 C 9.115696,35.861718 5.205501,35.790468 4.988769,35.66423 Z"
     id="path4775"
     inkscape:connector-curvature="0" /><path
     style="fill:#ffffff;stroke-width:0.19175777"
     d="M 10.022415,2.98486 V 0.012614 h 1.917578 1.917577 V 2.98486 5.957105 h -1.917577 -1.917578 z"
     id="path4777"
     inkscape:connector-curvature="0" /><path
     style="fill:#ffffff;stroke-width:0.19175777"
     d="M 16.158664,2.98486 V 0.012614 h 1.917577 1.917578 V 2.98486 5.957105 h -1.917578 -1.917577 z"
     id="path4779"
     inkscape:connector-curvature="0" /><path
     style="fill:#ffffff;stroke-width:0.19175777"
     d="M 4.077924,2.98486 V 0.012614 H 5.995502 7.913079 V 2.98486 5.957105 H 5.995502 4.077924 Z"
     id="path4781"
     inkscape:connector-curvature="0" /><path
     style="fill:#e40000;stroke-width:0.09587888;fill-opacity:1"
     d="M 1.6049205,39.899115 C 1.0637771,39.791822 0.55693503,39.390276 0.28104089,38.850268 l -0.2157275,-0.422243 v -18.43945 c 0,-15.2440243 0.02238273,-18.4929142 0.12916127,-18.7479756 C 0.37000414,0.82131304 1.0263726,0.24796662 1.4727407,0.1240172 1.6742234,0.06806866 2.3244596,0.02205197 2.9177102,0.02175788 L 3.9963477,0.02122317 V 3.0414081 6.061593 H 6.0098043 8.0232609 V 3.0414081 0.02122317 H 8.9820498 9.9408386 V 3.0414081 6.061593 h 2.0613964 2.061396 V 3.0414081 0.02122317 h 0.958789 0.958788 V 3.0414081 6.061593 h 2.013457 2.013457 V 3.0414081 0.02122317 h 2.581554 2.581555 l 0.674975,0.45542471 c 1.842837,1.24341572 5.515977,5.04770422 6.017534,6.23239172 0.110679,0.2614239 0.127934,2.8591587 0.10667,16.0597124 l -0.02537,15.747844 -0.266216,0.452876 c -0.17263,0.293674 -0.425417,0.546461 -0.719091,0.719092 l -0.452876,0.266215 -14.238015,0.01439 c -7.8879151,0.008 -14.4279686,-0.02327 -14.6639245,-0.07005 z m 24.9893425,-3.97137 c 0.581945,-0.17282 1.208359,-0.795614 1.363993,-1.356115 0.06993,-0.251834 0.102793,-3.609673 0.103157,-10.539314 5.75e-4,-11.235231 0.02142,-10.83639 -0.596081,-11.415114 -0.712279,-0.667553 0.3395,-0.611118 -11.389263,-0.611118 H 5.4751625 L 5.0486439,12.221811 C 4.7992968,12.347928 4.5021111,12.610225 4.3332062,12.85326 l -0.2889191,0.415721 -0.028452,10.514472 c -0.019713,7.284925 0.00316,10.62358 0.074463,10.869696 0.1788413,0.617295 0.7090077,1.106749 1.4394906,1.328952 0.1321748,0.04021 4.8166953,0.07681 10.4100473,0.08134 8.781108,0.0071 10.235912,-0.01141 10.654426,-0.135698 z"
     id="path4802"
     inkscape:connector-curvature="0" /><text
     xml:space="preserve"
     style="font-style:normal;font-variant:normal;font-weight:bold;font-stretch:normal;font-size:24.5716095px;line-height:1.25;font-family:sans-serif;-inkscape-font-specification:'sans-serif Bold';letter-spacing:0px;word-spacing:0px;fill:#e40000;fill-opacity:1;stroke:none;stroke-width:0.61429024;"
     x="8.198245"
     y="33.159996"
     id="text3767"
     transform="scale(1.0124902,0.98766387)"><tspan
       sodipodi:role="line"
       id="tspan3765"
       x="8.198245"
       y="33.159996"
       style="font-style:normal;font-variant:normal;font-weight:bold;font-stretch:normal;font-family:sans-serif;-inkscape-font-specification:'sans-serif Bold';stroke-width:0.61429024;fill:#e40000;fill-opacity:1;">2</tspan></text>
</svg>